<svg width="24" height="24" viewBox="0 0 24 24" fill="none" xmlns="http://www.w3.org/2000/svg">
<path fill-rule="evenodd" clip-rule="evenodd" d="M13.6129 6.2097C13.2206 5.90468 12.6534 5.93241 12.2929 6.29289L12.2097 6.3871C11.9047 6.77939 11.9324 7.34662 12.2929 7.70711L15.5852 11H5C4.44772 11 4 11.4477 4 12C4 12.5523 4.44772 13 5 13H15.5852L12.2929 16.2929L12.2097 16.3871C11.9047 16.7794 11.9324 17.3466 12.2929 17.7071C12.6834 18.0976 13.3166 18.0976 13.7071 17.7071L18.7071 12.7071L18.7903 12.6129C19.0953 12.2206 19.0676 11.6534 18.7071 11.2929L13.7071 6.29289L13.6129 6.2097Z" fill="#7E84A3"/>
</svg>
