<svg width="24" height="24" viewBox="0 0 24 24" fill="none" xmlns="http://www.w3.org/2000/svg">
<path fill-rule="evenodd" clip-rule="evenodd" d="M9.3871 6.2097L9.29289 6.29289L4.29289 11.2929C3.93241 11.6534 3.90468 12.2206 4.2097 12.6129L4.29289 12.7071L9.29289 17.7071C9.68342 18.0976 10.3166 18.0976 10.7071 17.7071C11.0676 17.3466 11.0953 16.7794 10.7903 16.3871L10.7071 16.2929L7.414 12.999L18 13C18.5523 13 19 12.5523 19 12C19 11.4477 18.5523 11 18 11L7.416 10.999L10.7071 7.70711C11.0676 7.34662 11.0953 6.77939 10.7903 6.3871L10.7071 6.29289C10.3466 5.93241 9.77939 5.90468 9.3871 6.2097Z" fill="#7E84A3"/>
</svg>
