<svg width="24" height="24" viewBox="0 0 24 24" fill="none" xmlns="http://www.w3.org/2000/svg">
<path fill-rule="evenodd" clip-rule="evenodd" d="M12.5 6C15.9334 6 18.7451 8.66207 18.9836 12.0348C20.6879 12.2689 22 13.7312 22 15.5C22 17.433 20.433 19 18.5 19C18.3303 19 18.1633 18.9879 18 18.9646L18 19H7L7.00071 18.9725C6.83631 18.9907 6.66925 19 6.5 19C4.01472 19 2 16.9853 2 14.5C2 12.0147 4.01472 10 6.5 10C7.47744 7.65125 9.79589 6 12.5 6ZM12.5 8C10.7398 8 9.16883 9.01944 8.43395 10.5717L8.34649 10.7684L7.83396 12H6.5C5.11929 12 4 13.1193 4 14.5C4 15.8807 5.11929 17 6.5 17H16.003C16.003 17 18.4264 17 18.5 17C19.3284 17 20 16.3284 20 15.5C20 14.7963 19.5116 14.1964 18.8467 14.0412L18.7115 14.0162L17.1031 13.7953L16.9886 12.1759C16.8228 9.83175 14.865 8 12.5 8Z" fill="#7E84A3"/>
</svg>
