<svg width="24" height="24" viewBox="0 0 24 24" fill="none" xmlns="http://www.w3.org/2000/svg">
<path fill-rule="evenodd" clip-rule="evenodd" d="M19 3C20.1046 3 21 3.89543 21 5V17C21 18.1046 20.1046 19 19 19H9L3 22V5C3 3.89543 3.89543 3 5 3H19ZM19 5H5V18.468L8.44603 17H19V5ZM12 7C12.5523 7 13 7.44772 13 8V9.999L15 10C15.5523 10 16 10.4477 16 11C16 11.5523 15.5523 12 15 12L13 11.999V14C13 14.5523 12.5523 15 12 15C11.4477 15 11 14.5523 11 14V11.999L9 12C8.44772 12 8 11.5523 8 11C8 10.4477 8.44772 10 9 10L11 9.999V8C11 7.44772 11.4477 7 12 7Z" fill="#7E84A3"/>
</svg>
