<svg width="24" height="24" viewBox="0 0 24 24" fill="none" xmlns="http://www.w3.org/2000/svg">
<path fill-rule="evenodd" clip-rule="evenodd" d="M19.7071 4.29289C19.3166 3.90237 18.6834 3.90237 18.2929 4.29289L15.5684 7.01736C14.2508 6.33912 13.0613 6 12 6C9.42267 6 6.08934 8 2 12C3.68265 13.6459 5.23731 14.9532 6.66397 15.9218L4.29289 18.2929L4.2097 18.3871C3.90468 18.7794 3.93241 19.3466 4.29289 19.7071C4.68342 20.0976 5.31658 20.0976 5.70711 19.7071L8.43158 16.9826C9.74924 17.6609 10.9387 18 12 18C14.5773 18 17.9107 16 22 12C20.3173 10.3541 18.7627 9.04683 17.336 8.07818L19.7071 5.70711L19.7903 5.6129C20.0953 5.22061 20.0676 4.65338 19.7071 4.29289ZM14.0718 8.51398C13.3589 8.20164 12.7222 8.03277 12.1665 8.00432L12 8C10.4165 8 8.12903 9.20868 5.26355 11.7028L4.926 12L4.95433 12.025C6.09571 13.0405 7.14865 13.8574 8.10553 14.4803L10.0677 12.518C10.0236 12.3528 10 12.1792 10 12C10 10.8954 10.8954 10 12 10C12.1792 10 12.3528 10.0236 12.518 10.0677L14.0718 8.51398ZM13.9323 11.482L15.8945 9.51974C16.8514 10.1426 17.9043 10.9595 19.0457 11.975L19.073 12L18.7364 12.2972C15.871 14.7913 13.5835 16 12 16L11.8335 15.9957C11.2778 15.9672 10.6411 15.7984 9.92819 15.486L11.482 13.9323C11.6472 13.9764 11.8208 14 12 14C13.1046 14 14 13.1046 14 12C14 11.8208 13.9764 11.6472 13.9323 11.482Z" fill="#7E84A3"/>
</svg>
