<svg width="24" height="24" viewBox="0 0 24 24" fill="none" xmlns="http://www.w3.org/2000/svg">
<path fill-rule="evenodd" clip-rule="evenodd" d="M13.8054 5C14.6967 5 15.5657 5.17685 16.3746 5.51625C16.7913 5.69107 17.1895 5.90798 17.5637 6.16334C18.0199 6.47464 18.1373 7.09682 17.826 7.553C17.5147 8.00919 16.8925 8.12665 16.4363 7.81534C16.1728 7.6355 15.893 7.48308 15.6009 7.3605C15.0356 7.12335 14.4295 7 13.8054 7C12.2362 7 10.8384 7.7845 9.96043 9.00036L13 9C13.5523 9 14 9.44772 14 10C14 10.5523 13.5523 11 13 11L9.09608 10.9997C9.03308 11.3228 9 11.6573 9 12C9 12.3431 9.03315 12.6779 9.09627 13.0013L13 13C13.5523 13 14 13.4477 14 14C14 14.5523 13.5523 15 13 15L9.96117 15.0007C10.8392 16.2159 12.2366 17 13.8054 17C14.4295 17 15.0356 16.8767 15.6009 16.6395C15.893 16.5169 16.1728 16.3645 16.4363 16.1847C16.8925 15.8734 17.5147 15.9908 17.826 16.447C18.1373 16.9032 18.0199 17.5254 17.5637 17.8367C17.1895 18.092 16.7913 18.3089 16.3746 18.4837C15.5657 18.8231 14.6967 19 13.8054 19C11.0866 19 8.74659 17.3629 7.65538 15.0006L7 15C6.44772 15 6 14.5523 6 14C6 13.4477 6.44772 13 7 13L7.06907 13.0006C7.02355 12.6738 7 12.3397 7 12C7 11.6607 7.0235 11.3269 7.06893 11.0004L7 11C6.44772 11 6 10.5523 6 10C6 9.44772 6.44772 9 7 9L7.65491 9.00041C8.74593 6.63757 11.0862 5 13.8054 5Z" fill="#7E84A3"/>
</svg>
