<svg width="24" height="24" viewBox="0 0 24 24" fill="none" xmlns="http://www.w3.org/2000/svg">
<path fill-rule="evenodd" clip-rule="evenodd" d="M12 6C14.5773 6 17.9107 8 22 12C17.9107 16 14.5773 18 12 18C9.42267 18 6.08934 16 2 12C6.08934 8 9.42267 6 12 6ZM12 8C10.4165 8 8.12903 9.20868 5.26355 11.7028L4.926 12L4.95433 12.025C7.86439 14.6142 10.1996 15.912 11.8335 15.9957L12 16C13.5835 16 15.871 14.7913 18.7364 12.2972L19.073 12L19.0457 11.975C16.1356 9.38584 13.8004 8.08797 12.1665 8.00432L12 8ZM12 10C13.1046 10 14 10.8954 14 12C14 13.1046 13.1046 14 12 14C10.8954 14 10 13.1046 10 12C10 10.8954 10.8954 10 12 10Z" fill="#7E84A3"/>
</svg>
