<svg width="24" height="24" viewBox="0 0 24 24" fill="none" xmlns="http://www.w3.org/2000/svg">
<path fill-rule="evenodd" clip-rule="evenodd" d="M15.306 2H15H6C4.89543 2 4 2.89543 4 4V20C4 21.1046 4.89543 22 6 22H18C19.1046 22 20 21.1046 20 20V7V6.69398L15.306 2ZM6 4H13V9H18V20H6V4ZM17.693 7L15 4.306V7H17.693ZM13 11C13 10.4477 12.5523 10 12 10C11.4477 10 11 10.4477 11 11V12.999L9 13C8.44772 13 8 13.4477 8 14C8 14.5523 8.44772 15 9 15L11 14.999V17C11 17.5523 11.4477 18 12 18C12.5523 18 13 17.5523 13 17V14.999L15 15C15.5523 15 16 14.5523 16 14C16 13.4477 15.5523 13 15 13L13 12.999V11Z" fill="#7E84A3"/>
</svg>
