<svg width="24" height="24" viewBox="0 0 24 24" fill="none" xmlns="http://www.w3.org/2000/svg">
<path fill-rule="evenodd" clip-rule="evenodd" d="M9.5 2L12 5H20C21.1046 5 22 5.89543 22 7V19C22 20.1046 21.1046 21 20 21H4C2.89543 21 2 20.1046 2 19V4C2 2.89543 2.89543 2 4 2H9.5ZM8.563 4H4V19H20V7H11.0632L8.563 4ZM12 9C12.5523 9 13 9.44772 13 10V11.999L15 12C15.5523 12 16 12.4477 16 13C16 13.5523 15.5523 14 15 14L13 13.999V16C13 16.5523 12.5523 17 12 17C11.4477 17 11 16.5523 11 16V13.999L9 14C8.44772 14 8 13.5523 8 13C8 12.4477 8.44772 12 9 12L11 11.999V10C11 9.44772 11.4477 9 12 9Z" fill="#7E84A3"/>
</svg>
