<svg width="24" height="24" viewBox="0 0 24 24" fill="none" xmlns="http://www.w3.org/2000/svg">
<path fill-rule="evenodd" clip-rule="evenodd" d="M12 2C17.5228 2 22 6.47715 22 12C22 17.5228 17.5228 22 12 22C6.47715 22 2 17.5228 2 12C2 6.47715 6.47715 2 12 2ZM19.938 13.001L16.9529 13.0001C16.7049 15.6183 15.4929 17.9639 13.6664 19.6959L13.8393 19.7878C17.0549 19.0308 19.5219 16.3344 19.938 13.001ZM7.04714 13.0001L4.06201 13.001C4.4781 16.3344 6.94513 19.0308 10.1604 19.7875L10.3347 19.6967C8.50717 17.9639 7.29516 15.6183 7.04714 13.0001ZM14.9422 13.0012H9.05787C9.31327 15.1963 10.3983 17.1459 11.9996 18.5443C13.6022 17.145 14.6868 15.1958 14.9422 13.0012ZM4.06189 11L7.04706 11.0007C7.29489 8.38213 8.50702 6.03615 10.3338 4.30387L10.1604 4.21252C7.03413 4.94821 4.61525 7.51777 4.10125 10.7237L4.06189 11ZM12.0014 5.45653L11.862 5.57831C10.3359 6.96735 9.30535 8.8681 9.05768 11.0004H14.9424C14.7001 8.91487 13.709 7.05083 12.2377 5.67043L12.0014 5.45653ZM13.8396 4.21252L13.6653 4.30318C15.493 6.03615 16.7051 8.38213 16.953 11.0007L19.9381 11C19.5224 7.66609 17.0552 4.96923 13.8396 4.21252Z" fill="#7E84A3"/>
</svg>
