<svg width="24" height="24" viewBox="0 0 24 24" fill="none" xmlns="http://www.w3.org/2000/svg">
<path fill-rule="evenodd" clip-rule="evenodd" d="M12.291 4.66437L12 5.09089L11.6431 4.56741L11.5555 4.48829C9.37118 2.51441 5.70958 2.65269 3.61316 4.7637C1.46228 6.92956 1.46228 10.4277 3.61316 12.5936L12 20.9998L20.3868 12.5936C22.5377 10.4277 22.5377 6.92956 20.3868 4.7637C18.1861 2.54766 14.5504 2.36567 12.4059 4.52513L12.291 4.66437ZM19.0934 6.27043C20.3487 7.69085 20.3004 9.88016 18.9485 11.2414L12.098 18.1393L11.899 18.1364L5.05145 11.2414C3.64952 9.82975 3.64952 7.52755 5.05145 6.11585L5.19975 5.97539C6.51884 4.80011 8.69641 4.71763 10.0429 5.78576L10.114 5.84591L12 8.61912L13.902 5.82159L13.8441 5.87728C15.1683 4.54389 17.5035 4.66077 18.9485 6.11585L19.0934 6.27043Z" fill="#7E84A3"/>
</svg>
