<svg width="24" height="24" viewBox="0 0 24 24" fill="none" xmlns="http://www.w3.org/2000/svg">
<path d="M13.3287 3.51558C12.5032 2.78174 11.239 2.8561 10.5052 3.68167L4.50518 10.4317C4.17976 10.7978 4 11.2706 4 11.7604V19C4 20.1046 4.89543 21 6 21H18C19.1046 21 20 20.1046 20 19V11.7604C20 11.2706 19.8202 10.7978 19.4948 10.4317L13.4948 3.68167C13.4428 3.6231 13.3873 3.56764 13.3287 3.51558ZM11 19V15H13V19H11ZM15 19V14C15 13.4477 14.5523 13 14 13H10C9.44772 13 9 13.4477 9 14V19H6V11.7604L12 5.0104L18 11.7604V19H15Z" fill="#7E84A3"/>
</svg>
