<svg width="24" height="24" viewBox="0 0 24 24" fill="none" xmlns="http://www.w3.org/2000/svg">
<path fill-rule="evenodd" clip-rule="evenodd" d="M11.194 3.17646C10.7449 3.38172 10.3858 3.75099 10.1862 4.21283L4.1716 18.129C3.72631 19.1592 4.17753 20.3656 5.17942 20.8235L5.34892 20.8916C5.80684 21.0511 6.30804 21.0339 6.75732 20.8389L12.0002 18.5641L17.2432 20.8389C18.2533 21.2772 19.4177 20.7903 19.8439 19.7516C20.0571 19.2318 20.0517 18.6445 19.8289 18.129L13.8143 4.21283C13.3903 3.23162 12.306 2.76403 11.3382 3.11728L11.194 3.17646ZM5.98568 18.9581L12.0002 5.04193L18.0148 18.9581L12.0002 16.3488L5.98568 18.9581Z" fill="#7E84A3"/>
</svg>
