<svg width="24" height="24" viewBox="0 0 24 24" fill="none" xmlns="http://www.w3.org/2000/svg">
<path fill-rule="evenodd" clip-rule="evenodd" d="M16.5 6C19.5376 6 22 8.46243 22 11.5C22 14.4635 19.6562 16.8795 16.7212 16.9956L16.5 17H5C4.44772 17 4 16.5523 4 16C4 15.4872 4.38604 15.0645 4.88338 15.0067L5 15H16.5C18.433 15 20 13.433 20 11.5C20 9.63144 18.5357 8.10487 16.692 8.00518L16.5 8H6C4.89543 8 4 8.89543 4 10C4 11.0544 4.81588 11.9182 5.85074 11.9945L6 12H15.5C15.7761 12 16 11.7761 16 11.5C16 11.2545 15.8231 11.0504 15.5899 11.0081L15.5 11H8C7.44772 11 7 10.5523 7 10C7 9.48716 7.38604 9.06449 7.88338 9.00673L8 9H15.5C16.8807 9 18 10.1193 18 11.5C18 12.8255 16.9685 13.91 15.6644 13.9947L15.5 14H6C3.79086 14 2 12.2091 2 10C2 7.8578 3.68397 6.10892 5.80036 6.0049L6 6H16.5Z" fill="#7E84A3"/>
</svg>
