<svg width="24" height="24" viewBox="0 0 24 24" fill="none" xmlns="http://www.w3.org/2000/svg">
<path fill-rule="evenodd" clip-rule="evenodd" d="M12 2C15.866 2 19 5.19203 19 9.1296C19 11.4308 17.2068 15.1065 13.6205 20.1566C13.4959 20.3322 13.3445 20.4864 13.1721 20.6134C12.3219 21.2397 11.151 21.0865 10.481 20.2881L10.3795 20.1566L10.0926 19.7502C6.69754 14.9088 5 11.3686 5 9.1296C5 5.19203 8.13401 2 12 2ZM12 4.03703C9.23858 4.03703 7 6.31705 7 9.1296C7 10.7607 8.4691 13.8711 11.4497 18.1781L11.7166 18.5612L11.999 18.9613L12.2678 18.5834L12.7958 17.8207C15.5278 13.82 16.9169 10.8958 16.9964 9.27372L17 9.1296C17 6.31705 14.7614 4.03703 12 4.03703ZM12 7C13.1046 7 14 7.89543 14 9C14 10.1046 13.1046 11 12 11C10.8954 11 10 10.1046 10 9C10 7.89543 10.8954 7 12 7Z" fill="#7E84A3"/>
</svg>
