<svg width="24" height="24" viewBox="0 0 24 24" fill="none" xmlns="http://www.w3.org/2000/svg">
<path fill-rule="evenodd" clip-rule="evenodd" d="M12 2L18.7022 4.51334C19.4829 4.80607 20 5.55231 20 6.386V14C20 18.4183 12 22 12 22C12 22 4 18.4183 4 14V6.386C4 5.55231 4.51715 4.80607 5.29775 4.51334L12 2ZM12 4.135L6 6.386V14C6 17.3137 12 20 12 20C12 20 17.8776 17.4344 17.9959 14.2249L18 14V6.386L12 4.135ZM15.648 8L17 9.39012L10.544 16L7 12.356L8.35199 10.9659L10.544 13.219L15.648 8Z" fill="#7E84A3"/>
</svg>
